# xmcd
#
# Track frame offsets:
#	150
#	14070
#	23627
#	35217
#	53925
#	67552
#	77855
#	92262
#	105237
#	118620
#	133320
#	143940
#
# Disc length: 2121
#
# Revision: 2
# Processed by: cddbd v1.5.1PL0 Copyright (c) Steve Scherf et al.
# Submitted via: CDex 1.50beta10
# Normalized: r0:DSETVAR1,TDELIM( - ),TSWAP
#
DISCID=9b08470c
DTITLE=Various Artist - Best of Country - Volume 2
DYEAR=1900
DGENRE=Country
TTITLE0=Terri Gibbs - Somebody's Knockin'
TTITLE1=Ernest Tubb - Walking The Floor Over You
TTITLE2=Kitty Wells - It Wasn't God Who Made Honky Tonk Angeles
TTITLE3=Don Williams - I Believe In You
TTITLE4=Patsy Cline - She's Got You
TTITLE5=Bob Wills - South Of The Border (Down Mexico Way)
TTITLE6=Merle Haggard - Ramblin' Fever
TTITLE7=Tanya Tucker - San Antonio Stroll
TTITLE8=Ferlin Husky - Gone
TTITLE9=Gene Watson - This Dream's On Me
TTITLE10=Bill Anderson - I Get The Fever
TTITLE11=Jennie C. Riley - Harper Valley P.T.A.
EXTD=
EXTT0=
EXTT1=
EXTT2=
EXTT3=
EXTT4=
EXTT5=
EXTT6=
EXTT7=
EXTT8=
EXTT9=
EXTT10=
EXTT11=
PLAYORDER=
